# xmcd CD database file
#
# Track frame offsets:
#	150
#	11937
#	24462
#	43287
#	55925
#	69425
#	86037
#	103862
#	118137
#	130025
#	142975
#
# Disc length: 2080 seconds
#
# Revision: 0
# Processed by: cddbd v1.5.2PL0 Copyright (c) Steve Scherf et al.
# Submitted via: CDex 1.70beta2
#
DISCID=9c081e0b
DTITLE=Various Artist - Nashville Shooters - Country line dance favorates
DYEAR=1900
DGENRE=Country
TTITLE0=Goin' through the big D
TTITLE1=A good run of bad luck
TTITLE2=Little rock
TTITLE3=What's it to you
TTITLE4=One more last chance
TTITLE5=That ain't no way to go
TTITLE6=I'd like to have that one back
TTITLE7=Words by heart
TTITLE8=Boom! it was over
TTITLE9=My next broken heart
TTITLE10=Easy come, easy go
EXTD=
EXTT0=
EXTT1=
EXTT2=
EXTT3=
EXTT4=
EXTT5=
EXTT6=
EXTT7=
EXTT8=
EXTT9=
EXTT10=
PLAYORDER=
